<?xml version="1.0" encoding="UTF-8" standalone="no"?>
<svg
   xmlns:dc="http://purl.org/dc/elements/1.1/"
   xmlns:cc="http://creativecommons.org/ns#"
   xmlns:rdf="http://www.w3.org/1999/02/22-rdf-syntax-ns#"
   xmlns:svg="http://www.w3.org/2000/svg"
   xmlns="http://www.w3.org/2000/svg"
   xmlns:sodipodi="http://sodipodi.sourceforge.net/DTD/sodipodi-0.dtd"
   xmlns:inkscape="http://www.inkscape.org/namespaces/inkscape"
   inkscape:version="1.0.1 (3bc2e813f5, 2020-09-07)"
   sodipodi:docname="BESilver Self 3.svg"
   id="svg14"
   version="1.1"
   viewBox="0 0 36 36"
   inkscape:export-filename="C:\Users\Asheo\Google Drive\Synced\MouseMojis\1 Self\PNG\BES.png"
   inkscape:export-xdpi="1688.05"
   inkscape:export-ydpi="1688.05">
  <metadata
     id="metadata20">
    <rdf:RDF>
      <cc:Work
         rdf:about="">
        <dc:format>image/svg+xml</dc:format>
        <dc:type
           rdf:resource="http://purl.org/dc/dcmitype/StillImage" />
        <dc:title></dc:title>
      </cc:Work>
    </rdf:RDF>
  </metadata>
  <defs
     id="defs18" />
  <sodipodi:namedview
     inkscape:document-rotation="0"
     pagecolor="#ffffff"
     bordercolor="#666666"
     borderopacity="1"
     objecttolerance="10"
     gridtolerance="10"
     guidetolerance="10"
     inkscape:pageopacity="0"
     inkscape:pageshadow="2"
     inkscape:window-width="1414"
     inkscape:window-height="1030"
     id="namedview16"
     showgrid="false"
     inkscape:zoom="21.134635"
     inkscape:cx="17.462381"
     inkscape:cy="23.011727"
     inkscape:window-x="2259"
     inkscape:window-y="32"
     inkscape:window-maximized="0"
     inkscape:current-layer="svg14" />
  <path
     fill="#EA596E"
     d="M30 36H17c-.552 0-1-.447-1-1s.448-1 1-1h13c2.542 0 4-1.367 4-3.75 0-1.537-1.643-3.25-4-3.25h-7c-.553 0-1-.447-1-1s.447-1 1-1h7c3.589 0 6 2.715 6 5.25 0 3.493-2.355 5.75-6 5.75z"
     id="path2"
     style="fill:#c59e9e;fill-opacity:1" />
  <path
     fill="#CCD6DD"
     d="M12 26.717c0-2.85 3-7.035 0-7.035-4 0-10.137 6.566-10.137 8.442C1.863 30 8.304 30 11.153 30c2.849 0 .847-.434.847-3.283z"
     id="path4"
     style="fill:#d5d5d5;fill-opacity:1" />
  <path
     fill="#CCD6DD"
     d="M33 23.902c0-7.973-6.554-9.752-11.381-8.787-9.38 1.876-11.132 6.442-11.132 10.194 0 4.922 9.149 4.69 14.071 4.69S33 28.825 33 23.902z"
     id="path6"
     style="fill:#d5d5d5;fill-opacity:1" />
  <path
     fill="#CCD6DD"
     d="M25 22.496L7.894 24.371 11.425 30H25zm-8.082-5.353c0-2.683-1.997-4.858-4.458-4.858C9.997 12.286 8 14.46 8 17.143S9.997 22 12.46 22c2.461 0 4.458-2.174 4.458-4.857z"
     id="path8"
     style="fill:#d5d5d5;fill-opacity:1" />
  <circle
     style="fill:#000000;fill-opacity:1"
     fill="#DD2E44"
     cx="8.5"
     cy="24.5"
     r="1.5"
     id="circle12" />
  <path
     fill="#F4ABBA"
     d="m 15.429041,16.661268 c 0,1.581019 -1.27584,2.864049 -2.849115,2.864049 -1.574394,0 -2.8491154,-1.28303 -2.8491154,-2.864049 0,-1.58102 1.2747214,-2.863164 2.8491154,-2.863164 1.573275,-8.85e-4 2.849115,1.281263 2.849115,2.863164 z"
     id="path10-5"
     style="fill:#c39b9b;stroke-width:0.994349;fill-opacity:1" />
</svg>
